<?xml version="1.0" encoding="UTF-8" standalone="no"?>
<!DOCTYPE svg PUBLIC "-//W3C//DTD SVG 1.1//EN" "http://www.w3.org/Graphics/SVG/1.1/DTD/svg11.dtd">
<svg xmlns="http://www.w3.org/2000/svg">
<metadata>
This is a custom SVG font generated by IcoMoon.
<iconset grid="16"/>
</metadata>
<defs>
<font id="icomoon-ultimate" horiz-adv-x="512">
<font-face units-per-em="512" ascent="480" descent="-32"/>
<missing-glyph horiz-adv-x="512"/>
<glyph class="hidden" unicode="" d="M0,480L 512 -32L0 -32 z" horiz-adv-x="0"/>
<glyph unicode="a" d="M 240,480 L 240,480 C 372.548,480 480,393.043 480,285.776 C 480,178.509 372.548,91.552 240,91.552 C 227.271,91.552 214.777,92.362 202.583,93.907 C 151.030,42.56 91.497,33.353 32,32 L 32,44.567 C 64.126,60.244 90,88.8 90,121.434 C 90,125.987 89.644,130.458 88.985,134.831 C 34.706,170.438 0,224.825 0,285.776 C 0,393.043 107.452,480 240,480 ZM 498,44.657 C 498,16.686 516.157-7.792 544-21.229 L 544-32 C 492.437-30.841 445.107-22.949 400.429,21.063 C 389.859,19.738 379.032,19.043 368,19.043 C 320.265,19.043 276.296,31.922 241.193,53.563 C 313.53,53.816 381.823,76.99 433.61,118.899 C 459.714,140.025 480.307,164.812 494.817,192.573 C 510.2,222.006 518,253.364 518,285.776 C 518,291 517.775,296.194 517.371,301.36 C 553.656,271.393 576,230.549 576,185.522 C 576,133.278 545.921,86.661 498.88,56.14 C 498.309,52.392 498,48.56 498,44.657 Z" horiz-adv-x="576"/>
<glyph unicode="b" d="M 507.331,68.67c-0.002,0.002-0.004,0.004-0.006,0.005L 352.003,224l 155.322,155.325c 0.002,0.002, 0.004,0.003, 0.006,0.005   c 1.672,1.673, 2.881,3.627, 3.656,5.708c 2.123,5.688, 0.912,12.341-3.662,16.915L 433.952,475.326c-4.574,4.573-11.225,5.783-16.914,3.66   c-2.080-0.775-4.035-1.984-5.709-3.655c0-0.002-0.002-0.003-0.004-0.005L 256.001,320L 100.677,475.325   c-0.002,0.002-0.003,0.003-0.005,0.005c-1.673,1.671-3.627,2.88-5.707,3.655c-5.69,2.124-12.341,0.913-16.915-3.66L 4.676,401.951   c-4.574-4.574-5.784-11.226-3.661-16.914c 0.776-2.080, 1.985-4.036, 3.656-5.708c 0.002-0.001, 0.003-0.003, 0.005-0.005L 160.001,224   L 4.676,68.674c-0.001-0.002-0.003-0.003-0.004-0.005c-1.671-1.673-2.88-3.627-3.657-5.707c-2.124-5.688-0.913-12.341, 3.661-16.915   l 73.374-73.373c 4.575-4.574, 11.226-5.784, 16.915-3.661c 2.080,0.776, 4.035,1.985, 5.708,3.656c 0.001,0.002, 0.003,0.003, 0.005,0.005   l 155.324,155.325l 155.324-155.325c 0.002-0.001, 0.004-0.003, 0.006-0.004c 1.674-1.672, 3.627-2.881, 5.707-3.657   c 5.689-2.123, 12.342-0.913, 16.914,3.661l 73.373,73.374c 4.574,4.574, 5.785,11.227, 3.662,16.915   C 510.212,65.043, 509.003,66.997, 507.331,68.67z"/>
<glyph unicode="c" d="M 256,400.638 L 83.583,32 L 428.417,32 L 256,400.638 Z M 256,480 L 256,480 C 267.035,480 278.070,472.559 286.442,457.676 L 504.978,22.12 C 521.723-7.646 507.478-32 473.327-32 L 38.673-32 C 4.521-32 -9.722-7.646 7.021,22.12 L 225.558,457.676 C 233.93,472.559 244.965,480 256,480 ZM 224,96A32,32 2700 1 0 288,96A32,32 2700 1 0 224,96zM 256,288 C 273.673,288 288,273.673 288,256 L 278,160 L 234,160 L 224,256 C 224,273.673 238.327,288 256,288 Z"/>
<glyph unicode="d" d="M 496,288L 320,288 L 320,464 c0,8.836-7.164,16-16,16l-96,0 c-8.836,0-16-7.164-16-16l0-176 L 16,288 c-8.836,0-16-7.164-16-16l0-96   c0-8.836, 7.164-16, 16-16l 176,0 l0-176 c0-8.836, 7.164-16, 16-16l 96,0 c 8.836,0, 16,7.164, 16,16L 320,160 l 176,0 c 8.836,0, 16,7.164, 16,16l0,96   C 512,280.836, 504.836,288, 496,288z"/>
<glyph unicode="e" d="M 256,480C 114.615,480,0,365.385,0,224s 114.615-256, 256-256s 256,114.615, 256,256S 397.385,480, 256,480z M 208,64L 102,202l 47,49l 59-75  l 185,151l 23-23L 208,64z"/>
<glyph unicode="f" d="M 256,480C 114.615,480,0,365.385,0,224s 114.615-256, 256-256s 256,114.615, 256,256S 397.385,480, 256,480z M 384,306.745L 301.256,224  L 384,141.256L 384,96 l-45.256,0 L 256,178.744L 173.255,96L 128,96 l0,45.256 L 210.745,224L 128,306.745L 128,352 l 45.255,0 L 256,269.255L 338.744,352L 384,352   L 384,306.745 z"/>
<glyph unicode="n" d="M 496,448L 384,448 c-26.4,0-63.273-15.273-81.941-33.941L 113.941,225.941c-18.667-18.667-18.667-49.214,0-67.882l 140.118-140.117  c 18.667-18.668, 49.214-18.668, 67.882,0l 188.117,188.117C 528.727,224.727, 544,261.6, 544,288L 544,400 C 544,426.4, 522.4,448, 496,448z M 432,288  c-26.51,0-48,21.49-48,48s 21.49,48, 48,48s 48-21.49, 48-48S 458.51,288, 432,288zM 43.313,180.687 L 214.502,9.498 C 196.37-0.082 173.271,2.729 158.059,17.942 L 17.941,158.059 C -0.726,176.727 -0.726,207.274 17.941,225.941 L 206.059,414.059 C 224.727,432.727 261.6,448 288,448 L 43.313,203.314 C 37.091,197.091 37.091,186.91 43.313,180.687 Z" horiz-adv-x="544"/>
<glyph unicode="o" d="M 432,480L 48,480 C 21.6,480,0,458.4,0,432l0-416 c0-26.4, 21.6-48, 48-48l 384,0 c 26.4,0, 48,21.6, 48,48L 480,432 C 480,458.4, 458.4,480, 432,480z M 416,32L 64,32    L 64,416 l 352,0 L 416,32 zM 128,256L 352,256L 352,224L 128,224zM 128,192L 352,192L 352,160L 128,160zM 128,128L 352,128L 352,96L 128,96zM 128,320L 352,320L 352,288L 128,288z"/>
<glyph unicode="q" d="M 457.153,376.352 C 510.42,346.068 512,313.643 512.002,291.003 L 512.002,287.606 C 512.002,282.424 507.533,278.188 502.074,278.188 L 381.928,278.188 C 376.469,278.188 372,282.424 372,287.606 L 372,299.059 C 372,327.664 344.645,332.234 329.551,334.664 C 314.455,337.090 276.934,339.441 256.071,339.441 C 256.045,339.441 256.025,339.441 256.005,339.441 C 255.976,339.441 255.956,339.441 255.928,339.441 C 235.066,339.441 197.541,337.091 182.448,334.664 C 167.355,332.237 139.999,327.666 139.999,299.059 L 139.999,287.606 C 139.999,282.424 135.53,278.188 130.073,278.188 L 9.927,278.188 C 4.47,278.188 0.001,282.424 0.001,287.606 L 0.001,291.003 C 0.001,313.643 1.581,346.068 54.848,376.352 C 118.198,412.362 208.777,416 255.928,416 C 255.956,415.975 255.976,415.945 256.005,415.922 C 256.023,415.944 256.044,415.976 256.071,416 C 303.223,416 393.803,412.366 457.153,376.352 ZM 256.001,288c-28.374,0-87.443-2.126-117.456-38.519C 108.523,213.098, 33.455,32, 100.398,32c 66.956,0, 125.458,0, 155.606,0   c 30.137,0, 88.648,0, 155.595,0c 66.945,0-8.125,181.098-38.137,217.481C 343.444,285.874, 284.362,288, 256.001,288z M 256,96   c-35.346,0-64,28.653-64,64s 28.654,64, 64,64c 35.347,0, 64-28.653, 64-64S 291.347,96, 256,96z"/>
<glyph unicode="r" d="M 352,160 C 384,192 480,96 480,64 C 480,32 384-32 384-32 C 320-32 190.25,33.75 128,96 C 65.75,158.25 0,288 0,352 C 0,352 64,448 96,448 C 128,448 224,352 192,320 C 160,288 128,288 128,256 C 128,224 160,192 192,160 C 224,128 256,96 288,96 C 320,96 320,128 352,160 ZM 320,352c-22.419,0-42.133-11.536-53.563-28.987C 274.33,326.219, 282.955,328, 292,328c 37.556,0, 68-30.445, 68-68  c0-9.045-1.781-17.669-4.987-25.563C 372.464,245.867, 384,265.581, 384,288C 384,323.346, 355.347,352, 320,352zM 336,416c-33.896,0-64.273-15.059-84.812-38.85C 267.98,386.602, 287.358,392, 308,392c 64.064,0, 116-51.935, 116-116  c0-20.642-5.398-40.020-14.85-56.812C 432.941,239.727, 448,270.104, 448,304C 448,365.856, 397.855,416, 336,416zM 368,480c-41.519,0-78.926-17.578-105.206-45.689C 285.271,448.083, 311.707,456.028, 340,456.028c 81.738,0, 148-66.269, 148-148.014  c0-28.326-7.962-54.79-21.761-77.286C 494.393,257.011, 512,294.446, 512,336C 512,415.529, 447.529,480, 368,480z"/>
<glyph unicode="s" d="M 256,416C 132.288,416, 32,315.712, 32,192s 100.288-224, 224-224s 224,100.288, 224,224S 379.712,416, 256,416z M 256,12  c-99.412,0-180,80.589-180,180c0,99.412, 80.588,180, 180,180c 99.411,0, 180-80.588, 180-180C 436,92.589, 355.411,12, 256,12z   M 467.392,336.413C 475.413,350.439, 480,366.684, 480,384c0,53.020-42.98,96-96,96c-30.909,0-58.401-14.611-75.96-37.298  C 373.982,429.084, 430.643,390.103, 467.392,336.413z M 203.96,442.702C 186.402,465.389, 158.909,480, 128,480C 74.98,480, 32,437.020, 32,384  c0-17.316, 4.587-33.561, 12.608-47.587C 81.358,390.103, 138.019,429.084, 203.96,442.702z M 224,320l 32,0 l0-160 l-32,0 L 224,320 z M 256,192l 96,0 l0-32 l-96,0   L 256,192 z"/>
<glyph unicode="t" d="M 256,480C 167.634,480, 96,408.366, 96,320c0-160, 160-352, 160-352s 160,192, 160,352C 416,408.366, 344.365,480, 256,480z M 256,224  c-53.020,0-96,42.98-96,96s 42.98,96, 96,96s 96-42.98, 96-96S 309.020,224, 256,224z"/>
<glyph unicode="u" d="M 256,480C 167.634,480, 96,408.366, 96,320c0-160, 160-288, 160-288s 160,128, 160,288C 416,408.366, 344.365,480, 256,480z M 256,224  c-53.020,0-96,42.98-96,96s 42.98,96, 96,96c 53.020,0, 96-42.98, 96-96S 309.020,224, 256,224zM 393.128,131.185c-7.091-11.137-14.438-21.69-21.828-31.613c 1.173-0.551, 2.333-1.108, 3.471-1.677  C 399.106,85.726, 410,72.104, 410,64s-10.894-21.726-35.229-33.895C 344.131,14.786, 300.841,6, 256,6  s-88.131,8.786-118.771,24.105C 112.893,42.274, 102,55.896, 102,64s 10.893,21.726, 35.229,33.895  c 1.138,0.568, 2.298,1.126, 3.47,1.677c-7.39,9.923-14.737,20.477-21.827,31.613C 84.935,113.869, 64,90.159, 64,64  c0-53.020, 85.961-96, 192-96c 106.039,0, 192,42.98, 192,96C 448,90.159, 427.065,113.869, 393.128,131.185z"/>
<glyph unicode="x" d="M0,160L 96,64L 256,224L 416,64L 512,160L 256.001,416 z"/>
<glyph unicode="y" d="M 192,480L 96,384L 256,224L 96,64L 192-32L 448,224 z"/>
<glyph unicode="z" d="M 512,288L 416,384L 256,224L 96,384L0,288L 256,32.001 z"/>
<glyph unicode="1" d="M 320-32L 416,64L 256,224L 416,384L 320,480L 64,224 z"/>
<glyph unicode="4" d="M 240,416 C 214.667,416 190.209,412.025 167.307,404.186 C 145.845,396.839 126.75,386.468 110.556,373.363 C 80.534,349.068 64,317.962 64,285.776 C 64,267.781 69.033,250.302 78.96,233.827 C 89.303,216.657 104.909,200.93 124.090,188.348 C 139.31,178.364 149.558,162.372 152.271,144.373 C 152.722,141.378 153.086,138.37 153.361,135.357 C 154.722,136.617 156.073,137.914 157.418,139.254 C 169.487,151.274 185.762,157.91 202.579,157.91 C 205.253,157.91 207.938,157.742 210.626,157.401 C 220.306,156.175 230.188,155.553 240,155.553 C 265.333,155.553 289.79,159.527 312.692,167.367 C 334.155,174.713 353.25,185.084 369.444,198.189 C 399.467,222.484 416,253.59 416,285.776 C 416,317.962 399.467,349.067 369.444,373.363 C 353.25,386.469 334.155,396.839 312.692,404.186 C 289.79,412.025 265.333,416 240,416 Z M 240,480 L 240,480 C 372.548,480 480,393.043 480,285.776 C 480,178.509 372.548,91.552 240,91.552 C 227.271,91.552 214.777,92.362 202.583,93.907 C 151.030,42.56 91.497,33.353 32,32 L 32,44.567 C 64.126,60.244 90,88.8 90,121.434 C 90,125.987 89.644,130.458 88.985,134.831 C 34.706,170.438 0,224.825 0,285.776 C 0,393.043 107.452,480 240,480 ZM 498,44.657 C 498,16.686 516.157-7.792 544-21.229 L 544-32 C 492.437-30.841 445.107-22.949 400.429,21.063 C 389.859,19.738 379.032,19.043 368,19.043 C 320.265,19.043 276.296,31.922 241.193,53.563 C 313.53,53.816 381.823,76.99 433.61,118.899 C 459.714,140.025 480.307,164.812 494.817,192.573 C 510.2,222.006 518,253.364 518,285.776 C 518,291 517.775,296.194 517.371,301.36 C 553.656,271.393 576,230.549 576,185.522 C 576,133.278 545.921,86.661 498.88,56.14 C 498.309,52.392 498,48.56 498,44.657 Z" horiz-adv-x="576"/>
<glyph unicode="5" d="M 496.131,44.302L 374.855,147.449c-12.537,11.283-25.945,16.463-36.776,15.963C 366.707,196.946, 384,240.451, 384,288  C 384,394.039, 298.039,480, 192,480C 85.962,480,0,394.039,0,288c0-106.039, 85.961-192, 192-192c 47.549,0, 91.054,17.293, 124.588,45.922  c-0.5-10.831, 4.68-24.239, 15.963-36.776l 103.147-121.276c 17.661-19.623, 46.511-21.277, 64.11-3.678S 515.754,26.641, 496.131,44.302z   M 192,160c-70.692,0-128,57.308-128,128S 121.308,416, 192,416s 128-57.308, 128-128S 262.693,160, 192,160z"/>
<glyph unicode="6" d="M 510.225,95.951l-12.449,224.098C 496.799,337.622, 481.6,352, 464,352l-80,0 L 384,480 L 128,480 l0-128 L 48,352   c-17.601,0-32.799-14.378-33.775-31.951L 1.775,95.951C 0.799,78.378, 14.4,64, 32,64l 70.4,0 L 64-32l 384,0 l-38.4,96L 480,64   C 497.6,64, 511.2,78.378, 510.225,95.951z M 160,448l 192,0 l0-96 L 160,352 L 160,448 z M 111.265,0l 38.4,96l 212.67,0 l 38.4-96L 111.265,0 z M 448,256l-32,0 l0,64   l 32,0 L 448,256 z"/>
<glyph unicode="7" d="M 448,384L 64,384 c-35.2,0-64-28.8-64-64l0-224 c0-35.2, 28.8-64, 64-64l 384,0 c 35.2,0, 64,28.8, 64,64L 512,320 C 512,355.2, 483.2,384, 448,384z   M 64,96c0,70.692, 35.817,128, 80,128c-26.51,0-48,21.49-48,48s 21.49,48, 48,48s 48-21.49, 48-48s-21.49-48-48-48  c 44.183,0, 80-57.308, 80-128L 64,96 z M 448,96L 288,96 l0,32 l 160,0 L 448,96 z M 448,192L 288,192 l0,32 l 160,0 L 448,192 z M 448,288L 288,288 l0,32 l 160,0 L 448,288 z"/>
<glyph unicode="8" d="M 256,480C 114.615,480,0,365.385,0,224s 114.615-256, 256-256s 256,114.615, 256,256S 397.385,480, 256,480z M 256,16  c-114.875,0-208,93.125-208,208S 141.125,432, 256,432s 208-93.125, 208-208S 370.875,16, 256,16zM 304,272l-144,80l-32,0 l0-32 l 80-144l 144-80l 32,0 l0,32 L 304,272z M 256,192c-17.673,0-32,14.327-32,32c0,17.673, 14.327,32, 32,32  c 17.673,0, 32-14.327, 32-32C 288,206.327, 273.673,192, 256,192z"/>
<glyph unicode="9" d="M 464,416L 48,416 C 21.6,416,0,394.4,0,368l0-288 c0-26.4, 21.6-48, 48-48l 416,0 c 26.4,0, 48,21.6, 48,48L 512,368 C 512,394.4, 490.4,416, 464,416z M 48,384   l 416,0 c 8.673,0, 16-7.327, 16-16l0-48 L 32,320 l0,48 C 32,376.673, 39.327,384, 48,384z M 464,64L 48,64 c-8.673,0-16,7.327-16,16L 32,224 l 448,0 l0-144    C 480,71.327, 472.673,64, 464,64zM 64,160L 96,160L 96,96L 64,96zM 128,160L 160,160L 160,96L 128,96zM 192,160L 224,160L 224,96L 192,96z"/>
<glyph unicode="0" d="M 448,224l-80,0 L 256,112L 144,224L 64,224 L0,96l0-32 l 512,0 l0,32 L 448,224z M0,32l 512,0 l0-32 L0,0 L0,32 z M 288,320L 288,448 l-64,0 l0-128 L 112,320 l 144-144l 144,144  L 288,320 z"/>
<glyph unicode="[" d="M 432,416L 192,176L 80,288L0,208L 192,16L 512,336 z"/>
<glyph unicode="]" d="M 512,184.778 L 256,383.491 L 0,184.777 L 0,265.796 L 256,464.509 L 512,265.795 ZM 448,192 L 448,0 L 320,0 L 320,128 L 192,128 L 192,0 L 64,0 L 64,192 L 256,336 Z"/>
<glyph unicode="{" d="M 464,416L 48,416 C 21.6,416,0,394.4,0,368l0-320 c0-26.4, 21.6-48, 48-48l 416,0 c 26.4,0, 48,21.6, 48,48L 512,368 C 512,394.4, 490.4,416, 464,416z   M 199.37,204.814L 64,99.368L 64,350.189 L 199.37,204.814z M 88.19,352L 423.81,352 L 256,226L 88.19,352z M 204.644,199.151L 256,144l 51.355,55.151  L 412.632,64L 99.368,64 L 204.644,199.151z M 312.63,204.814L 448,350.189l0-250.821 L 312.63,204.814z"/>
<glyph unicode="," d="M 432,480 C 476.182,480 512,444.183 512,400 C 512,381.99 506.045,365.371 496,352 L 464,320 L 352,432 L 384,464 C 397.371,474.045 413.989,480 432,480 ZM 32,112L0-32l 144,32l 296,296L 328,408L 32,112z M 357.789,298.211l-224-224l-27.578,27.578l 224,224L 357.789,298.211z"/>
<glyph unicode="." d="M 491.529,448c-167.25-126.583-327.651-295.9-327.651-295.9L 48.288,256L0,206.811    C 47.508,162.16, 157.581,44.212, 194.816,0C 299.611,175.090, 408.555,305.668, 512,425.077L 491.529,448z"/>
<glyph unicode="&lt;" d="M 352,160c-32-32-32-64-64-64s-64,32-96,64s-64,64-64,96s 32,32, 64,64S 128,448, 96,448S0,352,0,352c0-64, 65.75-193.75, 128-256  s 192-128, 256-128c0,0, 96,64, 96,96S 384,192, 352,160z"/>
<glyph unicode="&gt;" d="M0,448l0-320 l 512,0 L 512,448 L0,448 z M 480,160L 32,160 L 32,416 l 448,0 L 480,160 zM 336,96L 176,96L 160,32L 128,0L 384,0L 352,32  z"/>
<glyph unicode=":" d="M 368,480L 144,480 c-26.4,0-48-21.6-48-48l0-416 c0-26.4, 21.6-48, 48-48l 224,0 c 26.4,0, 48,21.6, 48,48L 416,432 C 416,458.4, 394.4,480, 368,480z M 192,456  l 128,0 l0-16 L 192,440 L 192,456 z M 256,0c-17.673,0-32,14.327-32,32s 14.327,32, 32,32s 32-14.327, 32-32S 273.673,0, 256,0z M 384,96L 128,96 L 128,416 l 256,0 L 384,96   z"/>
<glyph unicode=";" d="M 400,480L 80,480 C 53.6,480, 32,458.4, 32,432l0-416 c0-26.4, 21.6-48, 48-48l 320,0 c 26.4,0, 48,21.6, 48,48L 448,432 C 448,458.4, 426.4,480, 400,480z M 240-16  c-8.836,0-16,7.163-16,16s 7.164,16, 16,16s 16-7.163, 16-16S 248.836-16, 240-16z M 384,32L 96,32 L 96,416 l 288,0 L 384,32 z"/>
<glyph unicode="!" d="M 150.973,189.562c-25.454,0-46.663-20.909-46.663-47.021c0-25.654, 21.2-47.042, 46.663-47.042   c 25.93,0, 46.665,21.377, 46.665,47.042C 197.638,168.653, 176.903,189.562, 150.973,189.562z M 150.973,124.953   c-9.906,0-17.458,7.604-17.458,17.588c0,9.964, 7.562,18.049, 17.458,18.049c 9.891,0, 17.441-8.064, 17.441-18.049   S 160.874,124.953, 150.973,124.953zM 472.451,229.463l-45.237,26.134l-35.836,68.892l-6.138,13.297l0,2.374 c0,6.177-5.186,11.393-11.304,11.393l-0.953,0 l-10.372,0    L 63.763,351.553 c-6.117,0-11.293-5.228-11.293-11.393l0-162.001 L 32.191,178.159 l0-39.906 l 55.136,0 l0,4.277 c0,8.525, 1.899,17.1, 5.198,25.165   c 3.287,7.615, 7.54,14.251, 13.647,20.429c 5.668,5.717, 12.747,10.45, 20.289,13.77c 7.54,3.318, 16.024,4.757, 24.512,4.757   c 34.879,0, 63.64-28.513, 63.64-64.141l0-4.276 l 99.927,0 l0,4.286 c0,8.536, 1.884,17.089, 5.176,25.166   c 3.313,7.605, 7.545,14.241, 13.664,20.428c 5.673,5.715, 12.742,10.451, 20.278,13.78c 7.546,3.309, 16.023,4.757, 24.492,4.757   c 34.885,0, 63.64-28.522, 63.64-64.15l0-4.276 l 26.406,0 c 6.604,0, 11.304,4.745, 11.304,10.933L 479.5,207.59 l0,7.616 l0,3.802    C 479.5,223.777, 476.694,227.575, 472.451,229.463z M 320.203,256.551l0,67.94 l 42.398,0 l 35.371-67.94L 320.203,256.551 zM 378.181,189.562c-25.454,0-46.684-20.909-46.684-47.021c0-25.654, 21.218-47.042, 46.684-47.042   c 25.92,0, 46.675,21.377, 46.675,47.042C 424.845,168.653, 404.101,189.562, 378.181,189.562z M 378.181,124.953   c-9.905,0-17.453,7.604-17.453,17.588c0,9.964, 7.558,18.049, 17.453,18.049c 9.875,0, 17.433-8.064, 17.433-18.049   S 388.076,124.953, 378.181,124.953z"/>
<glyph unicode="&quot;" d="M 64.546,30.842l 153.182,0 L 217.728,135.926 l 76.591,0 l0-105.084 L 447.5,30.842 L 447.5,332.958 L 64.546,332.958 L 64.546,30.842 L 64.546,30.842z M 335.806,291.371l 78.709,0    l0-81.006 l-78.709,0 L 335.806,291.371 z M 216.656,291.371l 78.709,0 l0-81.006 l-78.709,0 L 216.656,291.371 z M 97.518,291.371l 78.735,0 l0-81.006 L 97.518,210.365 L 97.518,291.371 zM 64.546,385.5L 447.5,385.5L 447.5,359.229L 64.546,359.229z"/>
<glyph unicode="#" d="M 92.195,152.241c-1.543,3.227-3.086,6.158-4.417,9.188c-4.515,10.235-7.375,20.966-9.33,31.938    c-2.406,13.407-3.312,26.94-2.817,40.53c 1.091,31.741, 8.763,61.696, 24.888,89.23c 12.571,21.505, 29.29,39.201, 49.846,53.23    c 17.526,11.948, 36.411,21.108, 56.797,27.096c 10.362,3.044, 20.896,5.167, 31.641,6.356c 11.537,1.246, 23.104,1.401, 34.668,0.439    c 18.434-1.516, 36.271-5.606, 53.442-12.585c 1.5-0.624, 2.959-1.274, 4.445-1.939c 1.429-0.665, 2.845-1.359, 4.345-2.081    c 7.207,13.335, 14.412,26.643, 21.744,40.162c 8.765-31.372, 17.499-62.502, 26.248-93.774c-30.493-7.998-60.902-15.983-91.424-23.981    c 6.923,12.302, 13.746,24.477, 20.669,36.766c-0.991,0.664-1.841,1.288-2.718,1.812c-4.842,2.817-10.109,4.53-15.487,5.903    c-12.316,3.143-24.831,4.289-37.516,4.063c-18.603-0.312-36.61-3.596-53.853-10.689c-31.568-13.038-54.333-35.265-68.519-66.281    c-4.84-10.575-7.927-21.688-9.795-33.169c-1.544-9.626-2.138-19.339-1.841-29.092c 0.567-18.659, 3.823-36.837, 10.108-54.432    c 0.084-0.199, 0.114-0.341, 0.255-0.822C 119.842,164.175, 106.111,158.244, 92.195,152.241zM 380.326,287.183c 13.704,5.932, 27.435,11.863, 41.196,17.823c 0.296-0.467, 0.467-0.779, 0.623-1.047    c 4.896-8.763, 8.182-18.178, 10.66-27.875c 2.647-10.25, 4.202-20.668, 4.998-31.201c 0.848-11.141, 0.791-22.254-0.257-33.368    c-2.718-29.375-11.213-56.91-27.011-81.98c-13.392-21.265-30.891-38.423-52.053-51.898c-17.993-11.468-37.22-20.16-57.944-25.481    c-16.847-4.306-33.977-6.202-51.347-5.593c-22.481,0.806-44.168,5.336-64.88,14.227c-2.038,0.893-4.020,1.87-6.115,2.832    c-7.192-13.25-14.412-26.559-21.745-40.12c-8.777,31.385-17.498,62.545-26.246,93.789c 30.464,7.969, 60.888,15.953, 91.423,23.952    c-6.921-12.302-13.76-24.477-20.654-36.723c 0.778-0.566, 1.401-1.034, 2.082-1.458c 4.29-2.676, 9.003-4.332, 13.817-5.69    c 8.211-2.294, 16.605-3.61, 25.071-4.262c 8.225-0.623, 16.436-0.637, 24.619,0.042c 27.889,2.336, 53.428,11.014, 75.47,28.626    c 20.314,16.223, 34.33,36.893, 42.229,61.695c 2.973,9.371, 4.813,19.012, 5.748,28.822c 0.849,8.919, 0.962,17.852, 0.31,26.813    c-1.188,16.138-4.245,31.938-9.768,47.213C 380.524,286.531, 380.468,286.729, 380.326,287.183z"/>
<glyph unicode="$" d="M 480.802,293.673c-3.229,12.166-33.131,13.214-45.173,9.044c-43.77-15.111-87.519-30.245-131.29-45.355l-151.901,63.026   l-16.044-17.737l 65.008-81.115C 159.5,206.479, 82.747,178.705, 68.815,173.909c-11.988-4.171, 77.496-17.352, 98.011-13.812   c0,0, 157.646,53.407, 227.326,77.487c 17.924,6.188, 35.849,12.387, 53.752,18.564C 459.903,260.318, 484.284,280.48, 480.802,293.673M 43.989,231.595L 31.82,219.881L 64.101,180.769L 110.887,197.888  z"/>
<glyph unicode="%" d="M 383.723,447.982c 0.647-0.057, 1.305-0.171, 1.976-0.194c 9.638-0.284, 19.286-0.569, 28.899-0.854    c 0.452-0.011, 0.89-0.079, 1.375-0.192c-44.22-11.466-75.060-37.925-92.593-79.887c 3.198,0.693, 6.048,1.354, 8.921,1.957    c 17.119,3.605, 34.364,6.062, 51.931,5.767c 13.851-0.251, 27.367-2.263, 40.167-7.724c 15.675-6.677, 27.322-17.779, 36.093-32.033    c 6.661-10.817, 11.359-22.511, 15.72-34.362c 1.088-2.981, 2.159-5.984, 3.004-9.135c-0.337,0.295-0.707,0.557-1.027,0.865    c-15.688,14.343-34.051,23.466-55.080,27.266c-12.294,2.229-24.654,2.435-37.075,1.046c-12.489-1.434-24.55-4.346-36.152-9.192    c-0.875-0.34-1.707-0.749-2.769-1.25c 1.731-0.762, 3.256-1.41, 4.755-2.092c 15.12-6.678, 29.422-14.707, 42.095-25.321    c 12.595-10.556, 22.739-22.911, 28.775-38.243c 6.002-15.277, 7.226-30.905, 3.070-46.887c-0.114-0.409-0.253-0.798-0.382-1.207    c-0.032-0.067-0.148-0.136-0.265-0.25c-3.082,4.004-6.209,7.964-9.188,11.989c-7.849,10.579-18.283,18.19-29.34,25.094    c-11.739,7.326-24.702,11.397-38.252,13.844c-12.432,2.24-24.978,3.367-37.561,3.936c-11.771,0.557-23.545,0.944-35.318,0.99    c-11.772,0.044-23.443-1.037-34.95-3.618c-14.105-3.161-26.928-9.088-38.678-17.301c-5.714-4.016-11.486-7.974-16.829-12.41    c-10.562-8.714-18.503-19.634-25.104-31.418c-4.225-7.553-7.895-15.402-11.809-23.159c-0.358-0.684-0.566-1.436-1.004-2.594    c-0.473,2.66-0.901,4.914-1.258,7.166c-2.182,13.343-3.75,26.708-3.637,40.256c 0.104,12.069, 1.629,23.899, 6.062,35.25    c 3.497,8.963, 8.829,16.835, 14.589,24.481c 3.243,4.277, 6.407,8.644, 9.604,12.989c 0.219,0.295, 0.37,0.613, 0.704,1.138    c-2.424,0.296-4.674,0.591-6.926,0.841c-8.472,0.909-16.956,1.047-25.393-0.273c-11.819-1.819-22.23-6.802-31.741-13.786    c-9.881-7.235-18.571-15.766-27.32-24.263c-3.394-3.31-6.752-6.632-10.123-9.953c-0.323-0.319-0.681-0.614-0.993-0.888    c0,2.662-0.138,5.289, 0.046,7.872c 1.178,17.552, 6.325,33.841, 16.274,48.526c 9.834,14.526, 22.913,25.606, 38.137,34.33    c 13.655,7.838, 28.232,13.377, 43.561,17.018c 0.416,0.078, 0.832,0.205, 1.386,0.341c-0.312,0.774-0.624,1.502-0.947,2.196    c-3.798,8.155-8.264,15.902-14.359,22.625c-8.517,9.35-19.228,14.219-31.797,15.492c-9.338,1.001-18.666,0.25-28.014-0.091    c-9.534-0.364-19.081-0.478-28.614-0.706c-0.22,0-0.45,0.035-0.866,0.069c 0.254,0.341, 0.346,0.569, 0.531,0.75    c 13.528,14.241, 29.202,25.446, 47.819,32.327c 14.729,5.415, 29.965,7.701, 45.627,7.030c 29.294-1.263, 55.774-11.022, 80.383-26.23    c 3.923-2.411, 7.662-5.084, 11.634-7.712c 1.166,1.251, 2.378,2.559, 3.6,3.867c 11.498,12.24, 23.629,23.809, 37.503,33.454    c 16.182,11.227, 34.060,18.234, 53.716,20.475c 8.416,0.956, 16.934,1.217, 25.383,1.809c 0.659,0.046, 1.316,0.137, 1.986,0.194    C 377.029,447.982, 380.376,447.982, 383.723,447.982zM 154.053-0.409c 2.066,0.944, 3.763,1.706, 5.482,2.492c 21.099,9.86, 40.548,22.123, 57.527,37.979    c 26.858,25.070, 43.884,55.558, 51.56,91.138c 4.062,18.859, 5.17,37.9, 3.9,57.124c-0.668,10.17-2.043,20.271-4.408,30.234    c-0.068,0.354-0.068,0.729-0.139,1.219c 0.601,0.044, 1.108,0.124, 1.616,0.103c 11.646-0.16, 23.27-0.342, 34.927-0.501    c 0.901-0.011, 1.156-0.421, 1.246-1.161c 0.763-5.914, 1.848-11.818, 2.239-17.744c 0.624-9.736, 1.247-19.463, 1.108-29.188    c-0.508-35.764-7.94-70.024-24.481-102.103c-14.070-27.312-33.645-50.187-58.011-69.126c-0.405-0.307-1.017-0.533-1.524-0.533    c-23.351-0.023-46.689-0.023-70.028-0.023C 154.839-0.5, 154.629-0.477, 154.053-0.409z"/>
<glyph unicode="&amp;" d="M 90.108,339.488c-39.21,0-57.729-17.505-57.729-55.494l0-191.365 c0-38.010, 18.519-55.505, 57.729-55.505l 32.061,0 L 122.169,339.488 L 90.108,339.488    zM 189.685,339.488c 0.611,22.078, 18.726,39.883, 40.948,39.883l 48.75,0 c 22.201,0, 40.327-17.805, 40.896-39.883L 189.685,339.488 z    M 342.45,339.488C 341.85,373.784, 313.813,401.5, 279.383,401.5l-48.739,0 c-34.451,0-62.457-27.716-63.077-62.012l-0.062,0 l0-302.384 l 175.008,0    L 342.513,339.488 L 342.45,339.488 zM 419.897,339.488l-31.988,0 l0-302.384 l 31.988,0 c 39.231,0, 57.729,17.506, 57.729,55.516L 477.626,283.994    C 477.627,321.983, 459.129,339.488, 419.897,339.488"/>
<glyph unicode="'" d="M 212.456,258.546c0,4.603, 2.273,7.522, 6.352,8.258l0-15.222 C 215.754,252.841, 212.456,255.014, 212.456,258.546    M 225.839,237.317c 3.031-1.248, 6.33-3.443, 6.33-6.942c0-4.625-2.284-7.522-6.33-8.28L 225.839,237.317 z M 212.456,230.375l-11.267,0    c0-8.514, 4.748-17.529, 17.619-19.357l0-5.995 l 7.032,0 l0,5.751 c 10.476,0.913, 17.607,8.714, 17.607,19.602   c0,11.333-10.754,17.184-17.607,19.19l0,16.883 c 6.307-1.56, 6.33-6.174, 6.33-7.901l 11.278,0 c0,8.503-4.747,17.541-17.607,19.368l0,5.984    l-7.032,0 l0-5.706 c-10.475-0.936-17.619-8.759-17.619-19.647c0-11.333, 10.754-17.195, 17.619-19.201l0-16.872    C 212.478,224.057, 212.456,228.659, 212.456,230.375M 31.5,321.543L 68.899,321.543L 68.899,184.383L 31.5,184.383zM 474.65,238.499L 474.65,238.499c0,0.011-0.268,0.133-0.758,0.401c-0.446,0.256-0.913,0.513-1.403,0.713   c-11.479,5.728-67.254,32.072-123.051,32.072c-6.899,0-12.482-5.583-12.482-12.459c0-6.887, 5.583-12.459, 12.482-12.459   c 31.136,0, 56.075-18.699, 56.075-18.699c-9.229-3.398-31.147-3.098-31.147-3.098L 262.157,224.97 c-6.887,0-12.458-5.616-12.458-12.481   c0-6.887, 5.572-12.459, 12.458-12.459l 93.51,0 l0-9.338 L 243.458,190.692 c-6.887,0-12.481-5.617-12.481-12.504c0-6.864, 5.594-12.459, 12.481-12.459   l 112.209,0 l0-9.35 l-93.51,0 c-6.887,0-12.458-5.583-12.458-12.469c0-6.888, 5.572-12.461, 12.458-12.461l 93.51,0 l0-9.349 l-62.351,0    c-6.888,0-12.459-5.562-12.459-12.458c0-6.899, 5.571-12.473, 12.459-12.473l 85.329,0 l0,0.069 c 52.801,0.935, 72.681,18.408, 95.915,33.051   l0,0.023 c 3.467,2.206, 5.773,6.062, 5.773,10.477l0,87.267 C 480.322,232.403, 478.061,236.248, 474.65,238.499M 218.518,178.188c0,7.444, 3.321,14.131, 8.537,18.7L 125.021,196.888 l0,93.508 l 21.33,0 c 7.644-7.79, 17.028-17.474, 25.72-26.623   c 2.429-2.541, 5.728-3.878, 9.049-3.878c 0.034,0.011, 0.067,0.011, 0.111,0c 6.887,0, 12.459,5.594, 12.459,12.459   c0,2.184-0.557,4.234-1.527,5.995c-1.259,3.298-2.953,7.488-4.958,12.013l 124.8,0 l0-52.978 l 12.471,0 l0,65.449 L 181.186,302.833    c-5.416,10.241-11.946,19.992-18.744,23.926c-3.254,1.895-7.255,2.741-12.905,2.741c-6.363,0-13.262-1.081-14.030-1.204   c-0.97-0.156-36.508-9.016-54.138-15.902l0-117.167 c 14.822-7.945, 52.7-26.645, 81.24-26.645l 57.893,0    C 219.253,171.534, 218.518,174.767, 218.518,178.188"/>
<glyph unicode="(" d="M 208.977,1.512c-2.525,12.522-5.063,25.031-7.576,37.562c-5.642,28.044-11.282,56.107-16.936,84.146    c-5.004,24.843-9.996,49.663-14.999,74.492c-0.094,0.427-0.202,0.85-0.295,1.301c-29.682-5.111-55.976,1.792-78.092,22.396    c-17.076,15.932-26.222,35.914-27.591,59.223c-2.667,46.001, 31.238,86.882, 76.592,92.334c 25.727,3.116, 48.847-3.493, 68.591-20.322    c 19.755-16.841, 29.788-38.615, 31.108-64.662c 0.685,0, 1.323,0, 1.971,0c 15.247,0, 30.506,0.024, 45.79-0.022    c 1.522-0.013, 2.172,0.518, 2.774,1.829c 24.146,51.208, 48.314,102.414, 72.484,153.615c 0.248,0.542, 0.52,1.092, 0.861,1.812    c 28.171-21.402, 56.283-42.769, 84.5-64.201c-5.818-7.671-11.554-15.2-17.443-22.954c-18.718,14.22-37.387,28.406-56.162,42.686    c-17.775-37.624-35.453-75.069-53.216-112.752c 20.312,0, 40.315,0, 60.556,0c-0.827-3.824-1.618-7.446-2.407-11.069    c-7.955-36.184-15.933-72.392-23.91-108.551c-7.519-34.178-15.037-68.308-22.554-102.475    c-4.626-21.029-9.276-42.048-13.913-63.103c-0.071-0.424-0.071-0.861-0.096-1.298    C 282.311,1.512, 245.656,1.512, 208.977,1.512z M 102.858,235.206c 10.337,14.422, 20.512,28.596, 30.802,42.994    c-17.466,1.262-34.625,2.501-52.010,3.789C 82.842,263.566, 89.922,248.199, 102.858,235.206z M 154.382,307.090    c 9.785,13.667, 19.437,27.144, 29.197,40.763c-17.266,8.45-34.79,9.96-53.095,4.437C 138.499,337.112, 146.382,322.208, 154.382,307.090    z M 119.911,223.052c 14.598-7.188, 29.681-9.241, 45.566-6.009c-0.071,0.485-0.095,0.863-0.167,1.229    c-1.723,8.543-3.61,17.041-5.063,25.631c-1.333,7.895-3.492,15.449-7.895,22.234c-0.236,0.342-0.449,0.697-0.756,1.168    C 140.988,252.518, 130.509,237.862, 119.911,223.052z M 83.716,302.817c 17.101-1.251, 34.012-2.502, 51.242-3.752    c-7.813,14.823-15.52,29.351-23.249,44.020C 97.547,332.923, 88.258,319.682, 83.716,302.817z M 221.121,292.763    c-1.947,16.793-8.792,30.885-20.605,42.792c-9.358-13.076-18.669-26.034-28.122-39.229    C 188.772,295.124, 204.822,293.955, 221.121,292.763z"/>
<glyph unicode=")" d="M 182.3,260.937l-29.9,0 l0,25.247 l 10.151,0 c 10.899,0, 19.749-8.872, 19.749-19.782L 182.3,260.937 z M 182.3,228.511l-29.9,0 l0,20.941 l 29.9,0   L 182.3,228.511 z M 182.3,211.57c0-10.867-8.85-19.76-19.749-19.76L 152.4,191.81 l0,25.226 l 29.9,0 L 182.3,211.57 z M 140.905,191.811l-25.66,0 l0,94.374 l 25.66,0   L 140.905,191.811 z M 103.792,260.937L 73.839,260.937 l0,5.465 c0,10.899, 8.871,19.782, 19.781,19.782l 10.172,0 L 103.792,260.937 L 103.792,260.937z M 103.792,228.511  L 73.839,228.511 l0,20.941 l 29.953,0 L 103.792,228.511 z M 103.792,191.811L 93.62,191.811 c-10.899,0-19.781,8.904-19.781,19.76l0,5.466 l 29.953,0 L 103.792,191.811 z   M 453.38,368.682L 56.964,368.682 c-14.077,0-25.464-11.409-25.464-25.475l0-238.201 c0-14.055, 11.387-25.506, 25.464-25.506L 453.38,79.5   c 14.023,0, 25.399,11.451, 25.399,25.506L 478.779,343.207 C 478.779,357.272, 467.403,368.682, 453.38,368.682"/>
<glyph unicode="+" d="M 408.277,397.722l-37.832,0 l0-12.443 c0-13.745-11.318-24.89-25.224-24.89c-13.903,0-25.222,11.145-25.222,24.89L 319.999,397.722 L 193.89,397.722   l0-12.443 c0-13.745-11.318-24.89-25.223-24.89c-13.903,0-25.222,11.145-25.222,24.89L 143.445,397.722 l-37.834,0   c-13.878,0-25.221-11.192-25.221-24.889l0-323.554 c0-13.696, 11.343-24.891, 25.221-24.891l 302.667,0 c 13.88,0, 25.223,11.194, 25.223,24.891  L 433.501,372.833 C 433.5,386.529, 422.157,397.722, 408.277,397.722z M 408.277,49.326c-0.011-0.011-0.023-0.036-0.049-0.047L 105.661,49.279   c-0.013,0.011-0.038,0.025-0.050,0.047L 105.611,323.056 l 302.667,0 L 408.278,49.326 z M 168.667,372.833c 6.959,0, 12.612,5.578, 12.612,12.445L 181.279,435.056   c0,6.866-5.653,12.444-12.612,12.444c-6.958,0-12.611-5.578-12.611-12.444l0-49.777 C 156.056,378.411, 161.708,372.833, 168.667,372.833z   M 345.222,372.833c 6.96,0, 12.612,5.578, 12.612,12.445L 357.834,435.056 c0,6.866-5.652,12.444-12.612,12.444c-6.958,0-12.61-5.578-12.61-12.444  l0-49.777 C 332.611,378.411, 338.264,372.833, 345.222,372.833z M 398.82,15.057L 115.070,15.057 c-13.88,0-25.221,8.083-25.221,21.779l0-12.447   c0-13.694, 11.341-24.889, 25.221-24.889l 283.75,0 c 13.88,0, 25.221,11.194, 25.221,24.889l0,12.447   C 424.041,23.14, 412.7,15.057, 398.82,15.057z"/>
<glyph unicode="/" d="M 384,160.016l-91.41,91.411L 512,416.002L 447.995,480l-274.26-109.721L 87.385,456.632C 62.495,481.521, 27.734,487.485, 10.134,469.886  C-7.465,452.287-1.5,417.523, 23.389,392.636l 86.343-86.342L0,32.003L 63.995-32L 228.59,187.434l 91.413-91.414l0-127.99 L 384-31.97   l 31.996,95.994l 95.994,31.998l0,63.996 L 384,160.018 L 384,160.016 z"/>
<glyph unicode="*" d="M 380.068,359.685c 4.641-0.034, 9.233-0.069, 13.851-0.104c 0.191-0.285, 0.357-0.59, 0.547-0.87    c 38.208-64.733, 76.437-129.458, 114.669-194.16c 0.214-0.358, 0.379-0.771, 0.64-1.288c-0.602-0.037-1.034-0.101-1.492-0.097    c-45.603,0.037-91.203,0.062-136.807,0.112c-28.934,0.014-57.867,0.029-86.813,0.062c-41.405,0.031-82.817,0.088-124.215,0.090    c-1.175-0.002-1.797,0.454-2.408,1.492c-15.201,25.811-30.428,51.597-45.652,77.393c-22.79,38.599-45.564,77.21-68.342,115.808    c-0.281,0.479-0.56,0.985-0.915,1.634c 0.62,0.022, 0.973,0.060, 1.334,0.056c 18.593,0.013, 37.203,0.007, 55.794-0.006    c 31.158-0.021, 62.31-0.061, 93.465-0.088c 31.209-0.015, 62.4-0.062, 93.62-0.089c 27.493-0.027, 55.021-0.1, 82.521-0.113    C 373.259,359.517, 376.65,359.625, 380.068,359.685z M 228.614,335.123c-1.773-0.125-4.726-0.196-7.663-0.499    c-6.749-0.722-13.292-2.382-19.31-5.942c-8.602-5.071-13.552-12.854-14.489-23.645c-0.638-7.367, 0.538-14.461, 2.607-21.417    c 4.051-13.607, 10.871-25.501, 19.169-36.374c 17.344-22.665, 38.721-39.208, 63.711-50.087c 16.764-7.308, 34.092-11.484, 52.285-9.861    c 6.931,0.621, 13.654,2.347, 19.857,5.964c 7.374,4.313, 12.312,10.731, 14.042,19.863c 1.433,7.626, 0.592,15.161-1.334,22.56    c-3.554,13.63-10.030,25.568-18.017,36.524c-16.377,22.426-36.847,38.934-60.692,50.413    C 263.162,330.122, 246.922,334.729, 228.614,335.123zM 21.475,322.305c 8.165-0.061, 16.055-0.093, 23.937-0.239c 0.528-0.003, 1.205-0.658, 1.532-1.217    c 9.041-15.026, 18.041-30.054, 27.070-45.093c 25.097-41.838, 50.194-83.692, 75.247-125.59c 0.779-1.303, 1.594-1.734, 2.997-1.734    c 25.711,0.061, 51.423,0.030, 77.14,0.025c 42.915-0.006, 85.847,0.023, 128.778,0.002c 26.073,0.006, 52.146-0.002, 78.229,0.001    c 12.881-0.004, 25.758-0.021, 38.641,0.017c 0.986-0.006, 1.561-0.291, 2.070-1.271c 3.492-6.737, 7.043-13.457, 10.573-20.183    c 0.178-0.33, 0.344-0.688, 0.594-1.219c-0.602-0.024-1.084-0.071-1.564-0.068c-36.356,0.018-72.721,0.064-109.111,0.085    c-29.729,0.021-59.457,0.033-89.161,0.054c-30.93,0.006-61.848,0.039-92.777,0.046c-18.966,0.008-37.942,0.018-56.919-0.015    c-0.985-0.006-1.55,0.292-2.097,1.235C 99.811,189.622, 62.914,252.119, 26.045,314.567    C 24.544,317.088, 23.071,319.579, 21.475,322.305zM 466.764,88.115c-5.507,0.041-10.68,0.106-15.838,0.119c-38.952,0.052-77.904,0.104-116.854,0.13    c-30.185,0.028-60.37,0.052-90.56,0.068c-31.562,0.022-63.136,0.048-94.698,0.073c-10.613-0.005-21.243,0.022-31.857-0.005    c-0.883,0.009-1.387,0.317-1.861,1.153C 76.976,154.251, 38.842,218.873, 0.707,283.462c-0.219,0.365-0.402,0.758-0.707,1.328    c 0.668,0.023, 1.149,0.078, 1.631,0.074c 7.203-0.087, 14.405-0.18, 21.598-0.207c 1.033-0.007, 1.633-0.336, 2.214-1.314    c 34.116-56.966, 68.248-113.895, 102.35-170.836c 0.654-1.091, 1.295-1.547, 2.527-1.53c 46.335,0.013, 92.667,0.014, 139.007-0.006    c 28.696-0.024, 57.412-0.030, 86.13-0.004c 32.579,0.007, 65.156,0.015, 97.746,0.062c 1.254,0.007, 1.852-0.435, 2.456-1.578    c 3.385-6.588, 6.83-13.111, 10.274-19.661C 466.146,89.367, 466.359,88.913, 466.764,88.115zM 289.918,248.495c 0.309-0.704, 0.546-1.195, 0.782-1.66c 5.062-9.789, 10.12-19.565, 15.156-29.372    c 1.14-2.179, 0.75-2.889-1.535-2.9c-4.377,0.021-8.778,0.146-13.156,0.059c-2.383-0.047-3.986,1.037-5.138,3.295    c-4.974,9.736-10.021,19.42-14.975,29.157c-0.592,1.142-1.192,1.609-2.444,1.605c-9.788,0.021-19.569,0.146-29.347,0.168    c-2.193,0.003-3.679,0.953-4.736,3.019c-2.297,4.569-4.667,9.1-7.006,13.642c-1.103,2.152-0.665,2.943, 1.601,2.939    c 9.74-0.072, 19.463-0.144, 29.205-0.217c 0.505-0.003, 0.997-0.007, 1.707-0.013c-0.308,0.657-0.522,1.141-0.76,1.607    c-4.939,9.631-9.909,19.234-14.872,28.852c-0.215,0.392-0.435,0.791-0.607,1.208c-0.558,1.374-0.124,2.237, 1.224,2.255    c 4.985,0.002, 9.993,0.011, 14.958-0.127c 1.792-0.040, 3.010-1.291, 3.89-2.992c 5.035-9.863, 10.142-19.674, 15.174-29.55    c 0.547-1.089, 1.17-1.418, 2.268-1.426c 9.786-0.013, 19.563-0.146, 29.353-0.16c 2.286-0.003, 3.815-1.020, 4.908-3.199    c 2.257-4.542, 4.632-8.999, 6.937-13.503c 1.127-2.172, 0.712-2.91-1.585-2.893c-9.74,0.060-19.479,0.132-29.222,0.205    C 291.194,248.485, 290.689,248.489, 289.918,248.495z"/>
<glyph unicode="-" d="M 416,384l-32,0 l0-64 l-96,0 L 288,384 l-96,0 l0-64 L 96,320 L 96,384 L 64,384 c-17.6,0-32-14.4-32-32l0-352 c0-17.6, 14.4-32, 32-32l 352,0 c 17.6,0, 32,14.4, 32,32L 448,352    C 448,369.6, 433.6,384, 416,384z M 128,0L 64.057,0 c-0.020,0.017-0.041,0.038-0.057,0.058L 64,64 l 64,0 L 128,0 z M 128,96L 64,96 l0,64 l 64,0 L 128,96 z M 128,192   L 64,192 l0,64 l 64,0 L 128,192 z M 224,0l-64,0 l0,64 l 64,0 L 224,0 z M 224,96l-64,0 l0,64 l 64,0 L 224,96 z M 224,192l-64,0 l0,64 l 64,0 L 224,192 z M 320,0l-64,0 l0,64 l 64,0 L 320,0 z M 320,96   l-64,0 l0,64 l 64,0 L 320,96 z M 320,192l-64,0 l0,64 l 64,0 L 320,192 z M 416,0.058c-0.017-0.020-0.038-0.041-0.058-0.058L 352,0 l0,64 l 64,0 L 416,0.058 z M 416,96l-64,0    l0,64 l 64,0 L 416,96 z M 416,192l-64,0 l0,64 l 64,0 L 416,192 zM 160,416c0,8.836-7.164,16-16,16s-16-7.164-16-16l0-64 l 32,0 L 160,416 zM 352,416c0,8.836-7.164,16-16,16s-16-7.164-16-16l0-64 l 32,0 L 352,416 z"/>
<glyph unicode="2" d="M 32,256L 80,256L 80,176L 32,176zM 32,352L 80,352L 80,272L 32,272zM 32,160L 80,160L 80,80L 32,80zM 32,64L 80,64L 80-16L 32-16zM 96,480l0-512 l 384,0 L 480,480 L 96,480 z M 288,351.835c 35.255,0, 63.835-28.58, 63.835-63.835s-28.58-63.835-63.835-63.835   c-35.255,0-63.835,28.58-63.835,63.835S 252.745,351.835, 288,351.835z M 384,96L 192,96 l0,32 c0,35.347, 28.654,64, 64,64l0,0 l 64,0    c 35.348,0, 64-28.653, 64-64L 384,96 zM 32,448L 80,448L 80,368L 32,368z"/>
<glyph unicode="3" d="M 512,176L 416,272L 416,416L 352,416L 352,336L 256,432L0,176L0,160L 64,160L 64,0L 224,0L 224,96L 288,96L 288,0L 448,0L 448,160L 512,160 z"/>
<glyph unicode="=" d="M 464,192 C 500.5,192 480,96 448,96 C 464,96 448,16 416,16 C 416-16 384-32 352-32 C 216.824-32 264.368,1.825 128,16 L 128,272 C 248.461,308.134 368,398.712 368,480 C 394.5,480 464,448 368,288 C 368,288 448,288 464,288 C 512,288 496,192 464,192 ZM 96,272 L 96,16 L 128,16 L 128,0 L 64,0 C 46.4,0 32,21.6 32,48 L 32,240 C 32,266.4 46.4,288 64,288 L 128,288 L 128,272 L 96,272 Z"/>
<glyph unicode="?" d="M 287.998,320L 351.997,256.001L 224,128.004L 160.001,192.003zM 500.763,331.248l-36.758,36.758l-16.004-16.004c-8.189-8.19-19.505-13.255-32-13.255   c-24.994,0-45.257,20.261-45.257,45.255c0,12.501, 5.070,23.819, 13.267,32.009l 15.994,15.993l-36.759,36.758   c-14.984,14.984-39.504,14.984-54.488,0L 11.238,171.243c-14.983-14.984-14.983-39.505,0-54.488l 36.76-36.759l 15.981,15.982   c 8.191,8.203, 19.515,13.276, 32.022,13.276c 24.994,0, 45.255-20.262, 45.255-45.255c0-12.503-5.070-23.82-13.267-32.011l-15.992-15.993   l 36.758-36.759c 14.983-14.983, 39.504-14.983, 54.488,0l 297.52,297.52C 515.745,291.744, 515.745,316.264, 500.763,331.248z    M 224.001,64.002l-128,128l 192,192l 128-128L 224.001,64.002z"/>
<glyph unicode="@" d="M 296,256l-8,0 l0,96 c0,52.935-43.065,96-96,96l-64,0 c-52.935,0-96-43.065-96-96l0-96 l-8,0 c-13.2,0-24-10.8-24-24l0-240   c0-13.2, 10.8-24, 24-24l 272,0 c 13.2,0, 24,10.8, 24,24L 320,232 C 320,245.2, 309.2,256, 296,256z M 192,32l-64,0 l 13.92,69.6  C 133.516,107.366, 128,117.037, 128,128c0,17.673, 14.327,32, 32,32c 17.673,0, 32-14.327, 32-32c0-10.963-5.516-20.634-13.92-26.4L 192,32  z M 224,256L 96,256 l0,96 c0,17.645, 14.355,32, 32,32l 64,0 c 17.645,0, 32-14.355, 32-32L 224,256 z"/>
<glyph unicode=" " horiz-adv-x="256"/>
</font>
</defs>
</svg>
